<svg xmlns="http://www.w3.org/2000/svg" xmlns:xlink="http://www.w3.org/1999/xlink" width="20px" height="20px" viewBox="0 0 20 20" version="1.1">
    <g stroke="none" stroke-width="1" fill="none" fill-rule="evenodd">
        <path d="M4,0 L16,0 C18.209139,0 20,1.790861 20,4 L20,16 C20,18.209139 18.209139,20 16,20 L4,20 C1.790861,20 0,18.209139 0,16 L0,4 C0,1.790861 1.790861,0 4,0 Z" fill="#FF8800"/>
        <path d="M10,3 C13.8658667,3 17,6.13413334 17,10 C17,13.8658667 13.8658667,17 10,17 C6.13413334,17 3,13.8658667 3,10 C3,6.13413334 6.13413334,3 10,3 Z M10,5 C7.23846154,5 5,7.23846154 5,10 C5,12.7615385 7.23846154,15 10,15 C12.7615385,15 15,12.7615385 15,10 C15,7.23846154 12.7615385,5 10,5 Z M11.3333333,8 C11.7015232,8 12,8.29847683 12,8.66666667 L12,8.66666667 L12,11.3333333 C12,11.7015232 11.7015232,12 11.3333333,12 L11.3333333,12 L8.66666667,12 C8.29847683,12 8,11.7015232 8,11.3333333 L8,11.3333333 L8,8.66666667 C8,8.29847683 8.29847683,8 8.66666667,8 L8.66666667,8 Z"  fill="#FFFFFF" fill-rule="nonzero"/>
    </g>
</svg>